<mxfile host="app.diagrams.net" agent="Mozilla/5.0 (Windows NT 10.0; Win64; x64) AppleWebKit/537.36 (KHTML, like Gecko) Chrome/130.0.0.0 Safari/537.36" version="24.7.17">
  <diagram name="Page-1" id="Kw8vZk5EMA7PgR8_cVhN">
    <mxGraphModel dx="1105" dy="2740" grid="1" gridSize="10" guides="1" tooltips="1" connect="1" arrows="1" fold="1" page="1" pageScale="1" pageWidth="850" pageHeight="1100" math="0" shadow="0">
      <root>
        <mxCell id="0" />
        <mxCell id="1" parent="0" />
        <mxCell id="_ChCI7-YV-PJL29PKUbB-1" value="" style="ellipse;html=1;shape=startState;fillColor=#000000;strokeColor=#ff0000;" vertex="1" parent="1">
          <mxGeometry x="420" y="-2160" width="30" height="30" as="geometry" />
        </mxCell>
        <mxCell id="_ChCI7-YV-PJL29PKUbB-2" value="" style="edgeStyle=orthogonalEdgeStyle;html=1;verticalAlign=bottom;endArrow=open;endSize=8;strokeColor=#ff0000;rounded=0;" edge="1" source="_ChCI7-YV-PJL29PKUbB-1" parent="1">
          <mxGeometry relative="1" as="geometry">
            <mxPoint x="435" y="-2070" as="targetPoint" />
          </mxGeometry>
        </mxCell>
        <mxCell id="_ChCI7-YV-PJL29PKUbB-25" value="" style="edgeStyle=orthogonalEdgeStyle;rounded=0;orthogonalLoop=1;jettySize=auto;html=1;entryX=0.5;entryY=0;entryDx=0;entryDy=0;" edge="1" parent="1" source="_ChCI7-YV-PJL29PKUbB-4" target="_ChCI7-YV-PJL29PKUbB-7">
          <mxGeometry relative="1" as="geometry">
            <mxPoint x="435" y="-1960" as="targetPoint" />
          </mxGeometry>
        </mxCell>
        <mxCell id="_ChCI7-YV-PJL29PKUbB-4" value="running" style="shape=process;whiteSpace=wrap;html=1;backgroundOutline=1;" vertex="1" parent="1">
          <mxGeometry x="375" y="-2060" width="120" height="60" as="geometry" />
        </mxCell>
        <mxCell id="_ChCI7-YV-PJL29PKUbB-12" style="edgeStyle=orthogonalEdgeStyle;rounded=0;orthogonalLoop=1;jettySize=auto;html=1;" edge="1" parent="1" source="_ChCI7-YV-PJL29PKUbB-7">
          <mxGeometry relative="1" as="geometry">
            <mxPoint x="560" y="-1860" as="targetPoint" />
          </mxGeometry>
        </mxCell>
        <mxCell id="_ChCI7-YV-PJL29PKUbB-17" style="edgeStyle=orthogonalEdgeStyle;rounded=0;orthogonalLoop=1;jettySize=auto;html=1;exitX=0.5;exitY=1;exitDx=0;exitDy=0;" edge="1" parent="1" source="_ChCI7-YV-PJL29PKUbB-7">
          <mxGeometry relative="1" as="geometry">
            <mxPoint x="434.9411764705883" y="-1860" as="targetPoint" />
          </mxGeometry>
        </mxCell>
        <mxCell id="_ChCI7-YV-PJL29PKUbB-18" style="edgeStyle=orthogonalEdgeStyle;rounded=0;orthogonalLoop=1;jettySize=auto;html=1;" edge="1" parent="1" source="_ChCI7-YV-PJL29PKUbB-7">
          <mxGeometry relative="1" as="geometry">
            <mxPoint x="320" y="-1860" as="targetPoint" />
          </mxGeometry>
        </mxCell>
        <mxCell id="_ChCI7-YV-PJL29PKUbB-7" value="menuAction" style="rhombus;whiteSpace=wrap;html=1;" vertex="1" parent="1">
          <mxGeometry x="395" y="-1950" width="80" height="80" as="geometry" />
        </mxCell>
        <mxCell id="_ChCI7-YV-PJL29PKUbB-32" value="" style="edgeStyle=orthogonalEdgeStyle;rounded=0;orthogonalLoop=1;jettySize=auto;html=1;" edge="1" parent="1" source="_ChCI7-YV-PJL29PKUbB-9" target="_ChCI7-YV-PJL29PKUbB-31">
          <mxGeometry relative="1" as="geometry" />
        </mxCell>
        <mxCell id="_ChCI7-YV-PJL29PKUbB-9" value="Add a movie" style="rounded=1;whiteSpace=wrap;html=1;" vertex="1" parent="1">
          <mxGeometry x="255" y="-1840" width="120" height="60" as="geometry" />
        </mxCell>
        <mxCell id="_ChCI7-YV-PJL29PKUbB-23" style="edgeStyle=orthogonalEdgeStyle;rounded=0;orthogonalLoop=1;jettySize=auto;html=1;entryX=0.5;entryY=0;entryDx=0;entryDy=0;" edge="1" parent="1" source="_ChCI7-YV-PJL29PKUbB-10" target="_ChCI7-YV-PJL29PKUbB-24">
          <mxGeometry relative="1" as="geometry">
            <mxPoint x="680" y="-1710" as="targetPoint" />
          </mxGeometry>
        </mxCell>
        <mxCell id="_ChCI7-YV-PJL29PKUbB-10" value="Exit" style="rounded=1;whiteSpace=wrap;html=1;" vertex="1" parent="1">
          <mxGeometry x="495" y="-1840" width="120" height="60" as="geometry" />
        </mxCell>
        <mxCell id="_ChCI7-YV-PJL29PKUbB-27" value="" style="edgeStyle=orthogonalEdgeStyle;rounded=0;orthogonalLoop=1;jettySize=auto;html=1;" edge="1" parent="1" source="_ChCI7-YV-PJL29PKUbB-11" target="_ChCI7-YV-PJL29PKUbB-26">
          <mxGeometry relative="1" as="geometry" />
        </mxCell>
        <mxCell id="_ChCI7-YV-PJL29PKUbB-11" value="Search" style="rounded=1;whiteSpace=wrap;html=1;" vertex="1" parent="1">
          <mxGeometry x="375" y="-1840" width="120" height="60" as="geometry" />
        </mxCell>
        <mxCell id="_ChCI7-YV-PJL29PKUbB-14" value="3" style="text;html=1;align=center;verticalAlign=middle;whiteSpace=wrap;rounded=0;" vertex="1" parent="1">
          <mxGeometry x="530" y="-1867" width="60" height="30" as="geometry" />
        </mxCell>
        <mxCell id="_ChCI7-YV-PJL29PKUbB-20" value="2" style="text;html=1;align=center;verticalAlign=middle;resizable=0;points=[];autosize=1;strokeColor=none;fillColor=none;" vertex="1" parent="1">
          <mxGeometry x="420" y="-1867" width="30" height="30" as="geometry" />
        </mxCell>
        <mxCell id="_ChCI7-YV-PJL29PKUbB-21" value="1&lt;div&gt;1&lt;/div&gt;" style="text;html=1;align=center;verticalAlign=middle;resizable=0;points=[];autosize=1;strokeColor=none;fillColor=none;" vertex="1" parent="1">
          <mxGeometry x="305" y="-1877" width="30" height="40" as="geometry" />
        </mxCell>
        <mxCell id="_ChCI7-YV-PJL29PKUbB-24" value="" style="ellipse;html=1;shape=endState;fillColor=#000000;strokeColor=#ff0000;" vertex="1" parent="1">
          <mxGeometry x="670" y="-1700" width="30" height="30" as="geometry" />
        </mxCell>
        <mxCell id="_ChCI7-YV-PJL29PKUbB-30" style="edgeStyle=orthogonalEdgeStyle;rounded=0;orthogonalLoop=1;jettySize=auto;html=1;exitX=1;exitY=0.5;exitDx=0;exitDy=0;entryX=0.5;entryY=0;entryDx=0;entryDy=0;" edge="1" parent="1" source="_ChCI7-YV-PJL29PKUbB-26" target="_ChCI7-YV-PJL29PKUbB-28">
          <mxGeometry relative="1" as="geometry" />
        </mxCell>
        <mxCell id="_ChCI7-YV-PJL29PKUbB-46" style="edgeStyle=orthogonalEdgeStyle;rounded=0;orthogonalLoop=1;jettySize=auto;html=1;entryX=0.5;entryY=0;entryDx=0;entryDy=0;" edge="1" parent="1" source="_ChCI7-YV-PJL29PKUbB-26" target="_ChCI7-YV-PJL29PKUbB-45">
          <mxGeometry relative="1" as="geometry" />
        </mxCell>
        <mxCell id="_ChCI7-YV-PJL29PKUbB-26" value="searching" style="rhombus;whiteSpace=wrap;html=1;rounded=1;" vertex="1" parent="1">
          <mxGeometry x="395" y="-1740" width="80" height="80" as="geometry" />
        </mxCell>
        <mxCell id="_ChCI7-YV-PJL29PKUbB-29" style="edgeStyle=orthogonalEdgeStyle;rounded=0;orthogonalLoop=1;jettySize=auto;html=1;entryX=1;entryY=0.5;entryDx=0;entryDy=0;" edge="1" parent="1" source="_ChCI7-YV-PJL29PKUbB-28" target="_ChCI7-YV-PJL29PKUbB-4">
          <mxGeometry relative="1" as="geometry">
            <mxPoint x="450" y="-1960" as="targetPoint" />
            <Array as="points">
              <mxPoint x="810" y="-1620" />
              <mxPoint x="810" y="-2030" />
            </Array>
          </mxGeometry>
        </mxCell>
        <mxCell id="_ChCI7-YV-PJL29PKUbB-28" value="Exit" style="rounded=1;whiteSpace=wrap;html=1;" vertex="1" parent="1">
          <mxGeometry x="500" y="-1650" width="120" height="60" as="geometry" />
        </mxCell>
        <mxCell id="_ChCI7-YV-PJL29PKUbB-34" value="" style="edgeStyle=orthogonalEdgeStyle;rounded=0;orthogonalLoop=1;jettySize=auto;html=1;" edge="1" parent="1" source="_ChCI7-YV-PJL29PKUbB-31" target="_ChCI7-YV-PJL29PKUbB-33">
          <mxGeometry relative="1" as="geometry" />
        </mxCell>
        <mxCell id="_ChCI7-YV-PJL29PKUbB-31" value="movieTitle" style="rounded=1;whiteSpace=wrap;html=1;" vertex="1" parent="1">
          <mxGeometry x="55" y="-1840" width="120" height="60" as="geometry" />
        </mxCell>
        <mxCell id="_ChCI7-YV-PJL29PKUbB-36" value="" style="edgeStyle=orthogonalEdgeStyle;rounded=0;orthogonalLoop=1;jettySize=auto;html=1;" edge="1" parent="1" source="_ChCI7-YV-PJL29PKUbB-33" target="_ChCI7-YV-PJL29PKUbB-35">
          <mxGeometry relative="1" as="geometry" />
        </mxCell>
        <mxCell id="_ChCI7-YV-PJL29PKUbB-33" value="movieDirector" style="rounded=1;whiteSpace=wrap;html=1;" vertex="1" parent="1">
          <mxGeometry x="55" y="-1760" width="120" height="60" as="geometry" />
        </mxCell>
        <mxCell id="_ChCI7-YV-PJL29PKUbB-38" value="" style="edgeStyle=orthogonalEdgeStyle;rounded=0;orthogonalLoop=1;jettySize=auto;html=1;" edge="1" parent="1" source="_ChCI7-YV-PJL29PKUbB-35" target="_ChCI7-YV-PJL29PKUbB-37">
          <mxGeometry relative="1" as="geometry" />
        </mxCell>
        <mxCell id="_ChCI7-YV-PJL29PKUbB-35" value="movieYear" style="rounded=1;whiteSpace=wrap;html=1;" vertex="1" parent="1">
          <mxGeometry x="55" y="-1680" width="120" height="60" as="geometry" />
        </mxCell>
        <mxCell id="_ChCI7-YV-PJL29PKUbB-40" value="" style="edgeStyle=orthogonalEdgeStyle;rounded=0;orthogonalLoop=1;jettySize=auto;html=1;" edge="1" parent="1" source="_ChCI7-YV-PJL29PKUbB-37" target="_ChCI7-YV-PJL29PKUbB-39">
          <mxGeometry relative="1" as="geometry" />
        </mxCell>
        <mxCell id="_ChCI7-YV-PJL29PKUbB-37" value="movieYear" style="rounded=1;whiteSpace=wrap;html=1;" vertex="1" parent="1">
          <mxGeometry x="55" y="-1600" width="120" height="60" as="geometry" />
        </mxCell>
        <mxCell id="_ChCI7-YV-PJL29PKUbB-42" value="" style="edgeStyle=orthogonalEdgeStyle;rounded=0;orthogonalLoop=1;jettySize=auto;html=1;" edge="1" parent="1" source="_ChCI7-YV-PJL29PKUbB-39" target="_ChCI7-YV-PJL29PKUbB-41">
          <mxGeometry relative="1" as="geometry" />
        </mxCell>
        <mxCell id="_ChCI7-YV-PJL29PKUbB-39" value="movieColored" style="rounded=1;whiteSpace=wrap;html=1;" vertex="1" parent="1">
          <mxGeometry x="55" y="-1520" width="120" height="60" as="geometry" />
        </mxCell>
        <mxCell id="_ChCI7-YV-PJL29PKUbB-44" value="" style="edgeStyle=orthogonalEdgeStyle;rounded=0;orthogonalLoop=1;jettySize=auto;html=1;" edge="1" parent="1" source="_ChCI7-YV-PJL29PKUbB-41" target="_ChCI7-YV-PJL29PKUbB-43">
          <mxGeometry relative="1" as="geometry" />
        </mxCell>
        <mxCell id="_ChCI7-YV-PJL29PKUbB-41" value="movieLength" style="rounded=1;whiteSpace=wrap;html=1;" vertex="1" parent="1">
          <mxGeometry x="55" y="-1440" width="120" height="60" as="geometry" />
        </mxCell>
        <mxCell id="_ChCI7-YV-PJL29PKUbB-49" style="edgeStyle=orthogonalEdgeStyle;rounded=0;orthogonalLoop=1;jettySize=auto;html=1;exitX=1;exitY=0.5;exitDx=0;exitDy=0;" edge="1" parent="1">
          <mxGeometry relative="1" as="geometry">
            <mxPoint x="370" y="-2030" as="targetPoint" />
            <mxPoint x="175" y="-1330.02" as="sourcePoint" />
            <Array as="points">
              <mxPoint x="175" y="-1329" />
              <mxPoint x="221" y="-1329" />
              <mxPoint x="221" y="-1960" />
              <mxPoint x="220" y="-1960" />
            </Array>
          </mxGeometry>
        </mxCell>
        <mxCell id="_ChCI7-YV-PJL29PKUbB-43" value="movieGenre" style="rounded=1;whiteSpace=wrap;html=1;" vertex="1" parent="1">
          <mxGeometry x="55" y="-1360" width="120" height="60" as="geometry" />
        </mxCell>
        <mxCell id="_ChCI7-YV-PJL29PKUbB-47" style="edgeStyle=orthogonalEdgeStyle;rounded=0;orthogonalLoop=1;jettySize=auto;html=1;entryX=0.5;entryY=1;entryDx=0;entryDy=0;" edge="1" parent="1" source="_ChCI7-YV-PJL29PKUbB-45" target="_ChCI7-YV-PJL29PKUbB-26">
          <mxGeometry relative="1" as="geometry" />
        </mxCell>
        <mxCell id="_ChCI7-YV-PJL29PKUbB-45" value="search" style="rounded=1;whiteSpace=wrap;html=1;" vertex="1" parent="1">
          <mxGeometry x="255" y="-1650" width="120" height="60" as="geometry" />
        </mxCell>
      </root>
    </mxGraphModel>
  </diagram>
</mxfile>
